<?xml version="1.0" encoding="utf-8"?>
<!-- Generator: Adobe Illustrator 16.0.4, SVG Export Plug-In . SVG Version: 6.00 Build 0)  -->
<svg version="1.2" baseProfile="tiny" id="Calque_1"
	 xmlns="http://www.w3.org/2000/svg" xmlns:xlink="http://www.w3.org/1999/xlink" x="0px" y="0px" width="150px" height="150px"
	 viewBox="0 0 150 150" xml:space="preserve">
<path id="Settings" fill="#DDDDDD" d="M121.052,76.662c0.02-0.553,0.042-1.104,0.042-1.662c0-3.944-0.498-7.772-1.43-11.427
	l5.604-9.655c-3.397-8.092-8.693-15.187-15.328-20.736l-11.033,2.402c-3.535-2.15-7.389-3.824-11.465-4.964l-5.554-9.671
	C79.631,20.664,77.335,20.5,75,20.5c-6.752,0-13.214,1.237-19.182,3.481l-3.478,10.884c-3.307,1.871-6.357,4.138-9.091,6.738
	l-11.282-0.027c-5.428,6.979-9.195,15.307-10.711,24.402l7.664,8.43c-0.002,0.197-0.015,0.393-0.015,0.592
	c0,3.505,0.404,6.913,1.146,10.194l-5.725,9.862c3.34,8.432,8.716,15.83,15.531,21.587l10.98-2.39
	c3.262,2.012,6.79,3.633,10.524,4.787l5.67,9.873c2.601,0.381,5.26,0.586,7.967,0.586c6.329,0,12.4-1.091,18.052-3.074l3.396-10.627
	c3.774-1.988,7.236-4.485,10.301-7.399l11.282,0.026c5.245-6.743,8.938-14.746,10.549-23.484L121.052,76.662z M75,108.834
	c-18.686,0-33.834-15.148-33.834-33.834S56.314,41.166,75,41.166S108.834,56.314,108.834,75S93.686,108.834,75,108.834z"/>
</svg>
